<?xml version="1.0" encoding="UTF-8"?>
<svg version="1.1" xmlns="http://www.w3.org/2000/svg" width="512" height="512">
<path d="M0 0 C4.12279192 0.00914431 8.24551904 -0.00496515 12.36829758 -0.01591969 C20.42114874 -0.03361055 28.47384991 -0.02990731 36.5267067 -0.01826912 C43.07743169 -0.00919766 49.62811496 -0.00802676 56.17884445 -0.01236439 C57.11483144 -0.01297732 58.05081843 -0.01359025 59.01516867 -0.01422176 C60.9172179 -0.01550079 62.81926713 -0.01679765 64.72131634 -0.01811212 C82.51389757 -0.02949029 100.30639608 -0.01644775 118.09896374 0.00508934 C133.3317681 0.0229578 148.56445049 0.01985291 163.79725266 0.0014143 C181.53063333 -0.02004141 199.26394168 -0.02839191 216.99733353 -0.01613665 C218.89198429 -0.01486259 220.78663507 -0.0136051 222.68128586 -0.01236439 C223.61324075 -0.01174729 224.54519565 -0.01113018 225.5053916 -0.01049438 C232.04044057 -0.00705555 238.57544327 -0.01283799 245.11048508 -0.0222826 C253.08571738 -0.03355638 261.06079241 -0.03035036 269.03600693 -0.00915962 C273.09708423 0.00127898 277.15790031 0.00559719 281.21897507 -0.00775623 C313.99068304 -0.10631518 342.46802042 5.11435943 366.68397141 28.71430492 C391.45121616 54.0452423 396.06487917 83.0568653 395.95296383 117.09283352 C395.94381952 121.21562544 395.95792898 125.33835256 395.96888351 129.4611311 C395.98657438 137.51398226 395.98287114 145.56668343 395.97123295 153.61954021 C395.96216149 160.17026521 395.96099059 166.72094848 395.96532822 173.27167797 C395.96594115 174.20766496 395.96655408 175.14365195 395.96718559 176.10800219 C395.96846462 178.01005142 395.96976148 179.91210065 395.97107595 181.81414986 C395.98245411 199.60673109 395.96941158 217.39922959 395.94787449 235.19179726 C395.93000603 250.42460162 395.93311092 265.65728401 395.95154953 280.89008617 C395.97300524 298.62346685 395.98135574 316.3567752 395.96910048 334.09016705 C395.96782642 335.98481781 395.96656893 337.87946859 395.96532822 339.77411938 C395.96471111 340.70607427 395.96409401 341.63802917 395.96345821 342.59822512 C395.96001938 349.13327409 395.96580182 355.66827679 395.97524643 362.2033186 C395.98652021 370.17855089 395.98331419 378.15362593 395.96212345 386.12884045 C395.95168485 390.18991775 395.94736664 394.25073383 395.96072006 398.31180859 C396.05927901 431.08351655 390.83860439 459.56085394 367.23865891 483.77680492 C341.90772153 508.54404968 312.89609853 513.15771269 278.86013031 513.04579735 C274.73733839 513.03665304 270.61461127 513.0507625 266.49183273 513.06171703 C258.43898157 513.0794079 250.3862804 513.07570466 242.33342361 513.06406647 C235.78269862 513.05499501 229.23201535 513.05382411 222.68128586 513.05816174 C221.74529887 513.05877467 220.80931188 513.0593876 219.84496164 513.06001911 C217.94291241 513.06129814 216.04086318 513.062595 214.13881397 513.06390947 C196.34623274 513.07528763 178.55373423 513.0622451 160.76116657 513.04070801 C145.52836221 513.02283955 130.29567982 513.02594444 115.06287766 513.04438305 C97.32949698 513.06583876 79.59618863 513.07418926 61.86279678 513.06193399 C59.96814602 513.06065994 58.07349524 513.05940245 56.17884445 513.05816174 C55.24688956 513.05754463 54.31493466 513.05692753 53.35473871 513.05629173 C46.81968974 513.0528529 40.28468704 513.05863534 33.74964523 513.06807995 C25.77441293 513.07935373 17.7993379 513.07614771 9.82412338 513.05495697 C5.76304608 513.04451837 1.70223 513.04020016 -2.35884476 513.05355358 C-35.13055273 513.15211253 -63.60789011 507.93143791 -87.82384109 484.33149242 C-112.59108585 459.00055505 -117.20474886 429.98893205 -117.09283352 395.95296383 C-117.08368921 391.83017191 -117.09779867 387.70744478 -117.1087532 383.58466625 C-117.12644407 375.53181509 -117.12274083 367.47911392 -117.11110264 359.42625713 C-117.10203118 352.87553214 -117.10086028 346.32484887 -117.10519791 339.77411938 C-117.10581084 338.83813239 -117.10642377 337.9021454 -117.10705528 336.93779516 C-117.10833431 335.03574593 -117.10963117 333.1336967 -117.11094564 331.23164749 C-117.1223238 313.43906626 -117.10928127 295.64656775 -117.08774418 277.85400009 C-117.06987572 262.62119573 -117.07298061 247.38851334 -117.09141922 232.15571117 C-117.11287493 214.4223305 -117.12122543 196.68902215 -117.10897017 178.9556303 C-117.10769611 177.06097954 -117.10643862 175.16632876 -117.10519791 173.27167797 C-117.10427225 171.87374563 -117.10427225 171.87374563 -117.1033279 170.44757223 C-117.09988907 163.91252326 -117.10567151 157.37752056 -117.11511612 150.84247875 C-117.1263899 142.86724645 -117.12318388 134.89217142 -117.10199314 126.9169569 C-117.09155454 122.8558796 -117.08723633 118.79506352 -117.10058975 114.73398876 C-117.1991487 81.96228079 -111.97847408 53.48494341 -88.37852859 29.26899242 C-63.04759122 4.50174767 -34.03596822 -0.11191534 0 0 Z " fill="#000558" transform="translate(116.5699348449707,-0.5228986740112305)"/>
<path d="M0 0 C6.15346154 5.04421913 13.12870626 11.20682353 14.3671875 19.44140625 C14.6539978 25.10169196 13.91611221 28.66052431 10 33 C6.08184244 36.56196142 1.85484368 36.5639163 -3.2265625 36.4140625 C-7.66323936 35.75168539 -10.53402716 33.7344253 -14 31 C-15.39457842 29.93585341 -16.79041144 28.87334896 -18.1875 27.8125 C-18.79980469 27.32394531 -19.41210938 26.83539063 -20.04296875 26.33203125 C-26.9173933 21.6530317 -35.0433082 22.34436212 -43 23 C-46.91255064 24.13274158 -49.14642181 26.09135225 -51.9375 29.0625 C-54.02022462 34.82062101 -53.97002214 40.66312847 -51.625 46.3125 C-44.54888549 53.55709342 -35.40769006 56.46302745 -26.11035156 59.89575195 C-6.95554569 67.03733254 11.81585932 76.09315022 20.87109375 95.36328125 C24.86525628 104.69220758 24.1003374 115.99074789 20.9375 125.5 C18.48642988 131.51062981 15.46744138 136.30635906 11 141 C10.45085937 141.60070312 9.90171875 142.20140625 9.3359375 142.8203125 C-3.73094887 155.65694536 -23.09627668 160.28402588 -40.80517578 160.31689453 C-57.77474644 160.03926673 -73.6333108 153.7259281 -86 142 C-92.70899486 134.6686494 -95.52047193 128.63782256 -95.31640625 118.625 C-94.73524807 113.80353954 -92.39841096 111.23389202 -88.875 108.125 C-83.95568319 106.20004994 -78.93272962 105.9064398 -73.92578125 107.7734375 C-69.66496607 110.21065835 -66.54757589 113.45472308 -63.1875 117 C-55.78591091 124.51373438 -48.88996825 127.42893307 -38.4375 127.5625 C-30.40239266 127.4325879 -23.31710217 126.31710217 -17.4375 120.4375 C-14.33398545 115.1750188 -14.440904 109.94978282 -15 104 C-16.27271901 99.15634274 -19.07612059 96.71632 -23.26953125 94.171875 C-29.65932772 90.44314713 -36.44536945 87.7714044 -43.3125 85.0625 C-78.16371496 71.29620169 -78.16371496 71.29620169 -87 55 C-89.64999077 48.73252334 -90.55188328 42.96319383 -90.5 36.1875 C-90.49427979 35.31311279 -90.48855957 34.43872559 -90.48266602 33.5378418 C-90.17391853 22.29922528 -85.92645889 13.00095569 -78 5 C-71.90203253 -0.18327235 -65.54300188 -4.30792864 -58 -7 C-57.25234375 -7.29777344 -56.5046875 -7.59554687 -55.734375 -7.90234375 C-37.35506711 -14.17327113 -16.10179496 -10.06362185 0 0 Z " fill="#1C9CFD" transform="translate(361,181)"/>
<path d="M0 0 C6.06241021 5.13671284 11.89181711 11.15017912 13.734375 19.125 C14.06214445 24.43076805 12.23963454 27.81855273 9.234375 31.9609375 C3.8578088 35.91483842 -1.32476359 35.72854701 -7.765625 34.9609375 C-10.828125 33.4609375 -10.828125 33.4609375 -13.765625 30.9609375 C-15.67453549 29.55451561 -17.59194153 28.15958458 -19.515625 26.7734375 C-20.45921875 26.07863281 -21.4028125 25.38382813 -22.375 24.66796875 C-26.6929718 21.58471111 -30.34778509 21.70976471 -35.515625 21.6484375 C-36.31484375 21.61943359 -37.1140625 21.59042969 -37.9375 21.56054688 C-43.39440283 21.50220828 -46.43580368 22.34178594 -50.765625 25.9609375 C-54.43923409 30.11791621 -55.42061552 33.38179251 -55.1484375 38.7890625 C-54.24483431 43.91562756 -50.75382464 47.41808073 -46.84472656 50.61816406 C-42.14474819 53.65361276 -36.6779533 55.29020229 -31.453125 57.2109375 C-12.11547018 64.53567912 9.60694904 72.78162855 19.07055664 92.72290039 C21.25898704 97.9407669 21.74361337 102.64937686 21.671875 108.2734375 C21.66430176 109.10794434 21.65672852 109.94245117 21.64892578 110.80224609 C21.29218593 124.20993588 15.15179982 134.87394272 5.55859375 144.046875 C-9.69493049 156.60860084 -27.56953341 159.61091803 -46.765625 158.9609375 C-47.57773438 158.94289063 -48.38984375 158.92484375 -49.2265625 158.90625 C-62.84186483 158.04580338 -78.15516708 150.57139542 -87.765625 140.9609375 C-93.48350784 133.74984959 -97.30736218 127.53535775 -97.0859375 118.140625 C-96.44064079 113.74945961 -93.93541478 110.98893458 -90.703125 108.1484375 C-86.73130978 105.71409914 -83.33083372 105.65659025 -78.765625 105.9609375 C-73.44881116 107.70265238 -70.54152232 109.91533323 -66.765625 113.9609375 C-56.81259459 123.43207072 -49.3549312 126.49465736 -35.578125 126.24609375 C-29.25063 125.77282824 -24.31971955 123.87650842 -19.265625 120.0859375 C-16.2455092 115.80744012 -15.20669118 111.27357538 -15.40625 106.03515625 C-16.28774622 100.94739005 -18.95134278 97.36282873 -22.99755859 94.23632812 C-30.20571964 89.5813672 -37.54012012 86.46667114 -45.578125 83.5234375 C-63.94202578 76.57822763 -80.98620694 68.90874453 -90.015625 50.3984375 C-93.55407412 38.89847785 -92.67226128 26.15148647 -87.51171875 15.33203125 C-80.51766868 2.84946232 -69.86268752 -4.88381391 -56.390625 -9.4765625 C-37.34889724 -14.38509677 -15.9697774 -11.77432741 0 0 Z " fill="#1C9CFD" transform="translate(224.765625,182.0390625)"/>
</svg>
